<svg width="49" height="46" viewBox="0 0 49 46" fill="none" xmlns="http://www.w3.org/2000/svg">
<path d="M44.4062 9.2H36.75V4.6C36.75 2.06042 34.6924 0 32.1562 0H16.8438C14.3076 0 12.25 2.06042 12.25 4.6V9.2H4.59375C2.05762 9.2 0 11.2604 0 13.8V41.4C0 43.9396 2.05762 46 4.59375 46H44.4062C46.9424 46 49 43.9396 49 41.4V13.8C49 11.2604 46.9424 9.2 44.4062 9.2ZM18.375 6.13333H30.625V9.2H18.375V6.13333ZM33.6875 29.9C33.6875 30.3217 33.343 30.6667 32.9219 30.6667H27.5625V36.0333C27.5625 36.455 27.218 36.8 26.7969 36.8H22.2031C21.782 36.8 21.4375 36.455 21.4375 36.0333V30.6667H16.0781C15.657 30.6667 15.3125 30.3217 15.3125 29.9V25.3C15.3125 24.8783 15.657 24.5333 16.0781 24.5333H21.4375V19.1667C21.4375 18.745 21.782 18.4 22.2031 18.4H26.7969C27.218 18.4 27.5625 18.745 27.5625 19.1667V24.5333H32.9219C33.343 24.5333 33.6875 24.8783 33.6875 25.3V29.9Z" fill="#2F88FF"/>
</svg>
