<?xml version="1.0" encoding="UTF-8" standalone="no"?>
<svg
   width="111"
   height="111"
   viewBox="0 0 111 111"
   fill="none"
   version="1.1"
   id="svg313"
   sodipodi:docname="icon_mouse.svg"
   inkscape:version="1.2.2 (732a01da63, 2022-12-09)"
   xmlns:inkscape="http://www.inkscape.org/namespaces/inkscape"
   xmlns:sodipodi="http://sodipodi.sourceforge.net/DTD/sodipodi-0.dtd"
   xmlns="http://www.w3.org/2000/svg"
   xmlns:svg="http://www.w3.org/2000/svg">
  <defs
     id="defs317" />
  <sodipodi:namedview
     id="namedview315"
     pagecolor="#ffffff"
     bordercolor="#000000"
     borderopacity="0.25"
     inkscape:showpageshadow="2"
     inkscape:pageopacity="0.0"
     inkscape:pagecheckerboard="0"
     inkscape:deskcolor="#d1d1d1"
     showgrid="false"
     inkscape:zoom="4.7297297"
     inkscape:cx="45.351429"
     inkscape:cy="55.605714"
     inkscape:window-width="1366"
     inkscape:window-height="705"
     inkscape:window-x="-8"
     inkscape:window-y="-8"
     inkscape:window-maximized="1"
     inkscape:current-layer="svg313" />
  <path
     d="M0 0H110.94V110.94H0V0Z"
     fill="white"
     fill-opacity="0.01"
     id="path305" />
  <path
     d="M83.2052 55.4701C83.2052 40.1525 70.7878 27.735 55.4701 27.735C40.1525 27.735 27.7351 40.1525 27.7351 55.4701V73.9602C27.7351 89.2778 40.1525 101.695 55.4701 101.695C70.7878 101.695 83.2052 89.2778 83.2052 73.9602V55.4701Z"
     stroke="black"
     stroke-width="9.24503"
     id="path307" />
  <path
     d="M27.7351 55.4701C27.7351 40.1525 40.1525 27.735 55.4701 27.735C70.7878 27.735 83.2052 40.1525 83.2052 55.4701V57.7814H27.7351V55.4701Z"
     fill="#2F88FF"
     stroke="black"
     stroke-width="9.24503"
     id="path309"
     style="fill:#e80536;fill-opacity:1" />
  <path
     d="M85.5165 30.0463C85.5165 32.5993 87.586 34.6688 90.139 34.6688C92.692 34.6688 94.7615 32.5993 94.7615 30.0463H85.5165ZM60.0927 57.7814V23.1126H50.8476V57.7814H60.0927ZM69.3377 13.8675H72.8046V4.6225H69.3377V13.8675ZM85.5165 26.5794V30.0463H94.7615V26.5794H85.5165ZM72.8046 13.8675C79.8252 13.8675 85.5165 19.5588 85.5165 26.5794H94.7615C94.7615 14.4529 84.931 4.6225 72.8046 4.6225V13.8675ZM60.0927 23.1126C60.0927 18.0067 64.2319 13.8675 69.3377 13.8675V4.6225C59.1259 4.6225 50.8476 12.9008 50.8476 23.1126H60.0927Z"
     fill="black"
     id="path311" />
</svg>
