<svg width="112" height="111" viewBox="0 0 112 111" fill="none" xmlns="http://www.w3.org/2000/svg">
<path d="M0.368927 0.0596924H111.145V110.836H0.368927V0.0596924Z" fill="white" fill-opacity="0.01"/>
<path d="M11.9081 43.9085H99.6058V92.373C99.6058 94.9223 97.5393 96.9887 94.9901 96.9887H16.5237C13.9746 96.9887 11.9081 94.9223 11.9081 92.373V43.9085Z" fill="#2F88FF" stroke="black" stroke-width="10.7894" stroke-linejoin="round"/>
<path d="M11.9081 20.8301C11.9081 18.281 13.9746 16.2145 16.5237 16.2145H94.9901C97.5393 16.2145 99.6058 18.281 99.6058 20.8301V43.9085H11.9081V20.8301Z" stroke="black" stroke-width="10.7894" stroke-linejoin="round"/>
<path d="M37.2943 9.29102V27.7537" stroke="black" stroke-width="10.7894" stroke-linecap="round" stroke-linejoin="round"/>
<path d="M74.2196 9.29102V27.7537" stroke="black" stroke-width="10.7894" stroke-linecap="round" stroke-linejoin="round"/>
<path d="M64.9883 78.5261H78.8353" stroke="white" stroke-width="10.7894" stroke-linecap="round" stroke-linejoin="round"/>
<path d="M32.6786 78.5261H46.5256" stroke="white" stroke-width="10.7894" stroke-linecap="round" stroke-linejoin="round"/>
<path d="M64.9883 60.0634H78.8353" stroke="white" stroke-width="10.7894" stroke-linecap="round" stroke-linejoin="round"/>
<path d="M32.6786 60.0634H46.5256" stroke="white" stroke-width="10.7894" stroke-linecap="round" stroke-linejoin="round"/>
</svg>
