<svg width="106" height="106" viewBox="0 0 106 106" fill="none" xmlns="http://www.w3.org/2000/svg">
<path d="M0 0H105.94V105.94H0V0Z" fill="white" fill-opacity="0.01"/>
<path d="M42.0142 97.1122C39.8515 90.0592 36.5887 84.8013 32.226 81.3383C25.6817 76.1439 15.2838 79.3723 11.4429 74.0145C7.60199 68.6566 14.1339 58.8037 16.426 52.99C18.7181 47.1766 7.64053 45.1209 8.93382 43.4704C9.79604 42.3702 15.3939 39.1951 25.7274 33.9453C28.6635 17.2009 39.5087 8.82867 58.2632 8.82867C86.3946 8.82867 97.112 32.6784 97.112 47.8475C97.112 63.0168 84.1345 79.3588 65.648 82.8824C63.9948 85.2899 66.3792 90.0332 72.8005 97.1122" stroke="black" stroke-width="10.3002" stroke-linecap="round" stroke-linejoin="round"/>
<path fill-rule="evenodd" clip-rule="evenodd" d="M43.0376 32.0028C41.5957 37.596 42.0248 41.5237 44.3248 43.7854C46.6248 46.0472 50.5448 47.5261 56.0848 48.2225C54.8279 55.4368 56.3605 58.8214 60.6822 58.376C65.0041 57.9306 67.6008 56.1347 68.4726 52.9885C75.2269 54.8868 78.8876 53.2981 79.4546 48.2225C80.3054 40.6089 76.1998 34.5354 74.5167 34.5354C72.8333 34.5354 68.4726 34.3306 68.4726 32.0028C68.4726 29.6748 63.3786 28.3596 58.7812 28.3596C54.1839 28.3596 56.9507 25.2606 50.6377 26.4851C46.429 27.3013 43.8957 29.1404 43.0376 32.0028Z" fill="#2F88FF" stroke="black" stroke-width="8.82836" stroke-linejoin="round"/>
<path d="M67.3167 56.2811C65.0723 57.6737 61.9923 59.9896 60.6955 61.7988C57.4535 66.3222 54.8237 69.0765 54.2483 71.9693" stroke="black" stroke-width="8.82836" stroke-linecap="round"/>
</svg>
