<svg width="28" height="27" viewBox="0 0 28 27" fill="none" xmlns="http://www.w3.org/2000/svg">
<path d="M26 0H1.99375C0.89375 0 0 0.873884 0 1.94665V25.0533C0 26.1261 0.89375 27 1.99375 27H26C27.1 27 28 26.1261 28 25.0533V1.94665C28 0.873884 27.1 0 26 0ZM8.4625 23.1429H4.3125V10.2576H8.46875V23.1429H8.4625ZM6.3875 8.49777C5.05625 8.49777 3.98125 7.45513 3.98125 6.17746C3.98125 4.89978 5.05625 3.85714 6.3875 3.85714C7.7125 3.85714 8.79375 4.89978 8.79375 6.17746C8.79375 7.46116 7.71875 8.49777 6.3875 8.49777ZM24.0187 23.1429H19.8687V16.875C19.8687 15.3804 19.8375 13.4578 17.7125 13.4578C15.55 13.4578 15.2188 15.085 15.2188 16.7665V23.1429H11.0688V10.2576H15.05V12.0174H15.1062C15.6625 11.0049 17.0188 9.93817 19.0375 9.93817C23.2375 9.93817 24.0187 12.608 24.0187 16.0795V23.1429Z" fill="#13192E"/>
</svg>
