<svg width="188" height="161" viewBox="0 0 188 161" fill="none" xmlns="http://www.w3.org/2000/svg">
<g clip-path="url(#clip0_20_392)">
<mask id="mask0_20_392" style="mask-type:luminance" maskUnits="userSpaceOnUse" x="0" y="64" width="188" height="97">
<path d="M188 64H0V161H188V64Z" fill="white"/>
</mask>
<g mask="url(#mask0_20_392)">
<path d="M20.3086 126.454C20.3086 131.628 15.8817 134.422 10.384 134.422C5.29254 134.422 1.62879 132.095 0 128.368L4.73456 125.575C5.55101 127.901 7.58597 129.298 10.384 129.298C12.8293 129.298 14.7125 128.468 14.7125 126.4C14.7125 121.797 1.02158 124.382 1.02158 115.123C1.02158 110.261 5.14483 107.209 10.3348 107.209C14.5073 107.209 17.97 109.173 19.7506 112.588L15.1186 115.227C14.2037 113.209 12.419 112.279 10.3348 112.279C8.25062 112.279 6.61772 113.159 6.61772 115.023C6.61772 119.729 20.3086 116.886 20.3086 126.454Z" fill="#0058CF"/>
<path d="M20.891 120.817C20.891 113.109 26.8974 107.213 34.3275 107.213C41.7575 107.213 47.764 113.109 47.764 120.817C47.764 128.526 41.8068 134.421 34.3275 134.421C26.8481 134.421 20.891 128.472 20.891 120.817ZM42.2705 120.817C42.2705 116.11 38.8076 112.646 34.3316 112.646C29.8555 112.646 26.3928 116.11 26.3928 120.817C26.3928 125.524 29.8555 128.989 34.3316 128.989C38.8076 128.989 42.2705 125.524 42.2705 120.817Z" fill="#0058CF"/>
<path d="M104.05 129.302C107.102 129.302 109.396 127.905 110.614 126.096L115.144 128.785C112.801 132.304 108.985 134.421 103.996 134.421C95.5983 134.421 90.1497 128.576 90.1497 120.817C90.1497 113.059 95.5941 107.213 103.586 107.213C111.578 107.213 116.362 113.421 116.362 120.867C116.362 121.643 116.26 122.473 116.157 123.194H95.8977C96.7635 127.23 99.9717 129.298 104.042 129.298L104.05 129.302ZM110.819 118.645C110.056 114.197 106.848 112.283 103.541 112.283C99.4179 112.283 96.6198 114.768 95.8566 118.645H110.819Z" fill="#0058CF"/>
<path d="M141.877 117.87V133.75H136.379V118.441C136.379 114.51 134.139 112.442 130.677 112.442C127.214 112.442 124.211 114.614 124.211 119.892V133.755H118.713V107.893H124.211V111.204C125.889 108.514 128.638 107.222 132.1 107.222C137.803 107.222 141.873 111.153 141.873 117.878L141.877 117.87Z" fill="#0058CF"/>
<path d="M153.722 113.267V125.683C153.722 128.993 155.859 128.943 160.032 128.735V133.75C151.58 134.784 148.225 132.404 148.225 125.683V113.267H143.543V107.889H148.225V102.302L153.722 100.647V107.889H160.032V113.267H153.722Z" fill="#0058CF"/>
<path d="M175.683 129.302C178.736 129.302 181.029 127.905 182.251 126.096L186.781 128.785C184.439 132.304 180.624 134.421 175.634 134.421C167.235 134.421 161.787 128.576 161.787 120.817C161.787 113.059 167.235 107.213 175.224 107.213C183.211 107.213 188 113.421 188 120.867C188 121.643 187.897 122.473 187.795 123.194H167.535C168.401 127.23 171.609 129.298 175.679 129.298L175.683 129.302ZM182.453 118.645C181.69 114.197 178.482 112.283 175.174 112.283C171.052 112.283 168.253 114.768 167.491 118.645H182.453Z" fill="#0058CF"/>
<path d="M77.9813 107.214C74.5719 107.214 71.8723 108.61 70.1942 111.299C68.7172 108.715 66.2762 107.214 62.9652 107.214C59.6543 107.214 57.3157 108.456 55.6869 110.991V107.889H50.1893V133.75H55.6869V119.267C55.6869 114.56 58.2307 112.438 61.3365 112.438C64.4422 112.438 66.1203 114.456 66.1203 118.074V133.746H71.6179V119.263C71.6179 114.556 73.9072 112.433 77.1649 112.433C80.168 112.433 82.1004 114.451 82.1004 118.07V133.742H87.598V117.707C87.598 111.241 83.7291 107.209 77.9771 107.209L77.9813 107.214Z" fill="#00AEFF"/>
<path d="M49.7132 139.862C47.1572 150.535 37.8153 157.994 26.9922 157.994C16.1692 157.994 6.82726 150.539 4.27125 139.862L4.21381 139.62H1.17368L1.25573 140.008C3.89379 152.174 14.7169 161.004 26.9922 161.004C39.2677 161.004 50.0907 152.174 52.7288 140.008L52.8108 139.62H49.7707L49.7132 139.862Z" fill="#00AEFF"/>
<path d="M135.982 64C112.735 64 93.034 79.3676 86.1455 100.647H89.5507C96.308 81.2062 114.536 67.277 135.982 67.277C157.427 67.277 175.655 81.2104 182.412 100.647H185.818C178.925 79.3676 159.224 64 135.982 64Z" fill="#00AEFF"/>
</g>
</g>
<path d="M91.675 16.8614C94.4263 15.539 96.0906 12.8209 96.0906 9.52592C96.0906 7.06739 95.2939 5.05487 93.7342 3.54601C92.2164 1.97499 90.2149 1.17857 87.7919 1.17857H77.8182C77.7316 1.17857 77.6628 1.24957 77.6628 1.33615V35.5863C77.6628 35.6751 77.7316 35.744 77.8182 35.744H89.1388C91.7571 35.744 93.9826 34.8188 95.7576 32.9949C97.5439 31.1553 98.4492 28.9165 98.4492 26.3381C98.4492 21.6741 95.8264 18.0686 91.675 16.8614ZM78.9386 2.45652H87.7919C91.9256 2.45652 94.8146 5.36096 94.8146 9.52592C94.8146 11.5316 94.1491 13.2114 92.8376 14.5227C91.5596 15.8007 89.8622 16.4509 87.7919 16.4509H78.9386V2.45652ZM94.8079 32.1138C93.2902 33.6759 91.382 34.468 89.1388 34.468H78.9386V17.7267H88.7061C91.1935 17.7267 93.1927 18.5145 94.8123 20.1364C96.3811 21.7029 97.1732 23.791 97.1732 26.3381C97.1732 28.6326 96.3989 30.5186 94.8079 32.1138Z" fill="black"/>
<path d="M23.5532 24.685C22.3352 25.7324 20.9218 26.256 19.3153 26.256C17.2517 26.256 15.581 25.5371 14.2986 24.1014C13.0137 22.6636 12.3726 20.7842 12.3726 18.4611C12.3726 16.1247 13.0114 14.2365 14.2852 12.7986C15.5588 11.363 17.2361 10.6417 19.3153 10.6417C20.8263 10.6417 22.1909 11.1188 23.407 12.0685C24.625 13.0181 25.4859 14.2719 25.9896 15.8316H37.8516C37.2349 11.1055 35.2201 7.28681 31.8119 4.37121C28.4015 1.45561 24.219 -7.62939e-06 19.2664 -7.62939e-06C15.5965 -7.62939e-06 12.2927 0.790142 9.35266 2.37448C6.41486 3.95637 4.12058 6.1576 2.47187 8.97331C0.823379 11.7912 0 14.9552 0 18.4611C0 21.9692 0.823379 25.1309 2.47187 27.9489C4.12058 30.7668 6.41486 32.9659 9.35266 34.55C12.2927 36.1343 15.5965 36.9241 19.2664 36.9241C24.3011 36.9241 28.5392 35.413 31.9806 32.3955C35.4241 29.3734 37.4211 25.4282 37.9736 20.5558H25.9407C25.568 22.262 24.7715 23.6377 23.5532 24.685Z" fill="black"/>
<path d="M66.2588 15.0847C63.9201 12.8837 60.9047 11.7852 57.2081 11.7852C56.8287 11.7852 56.314 11.803 55.6615 11.8363L62.2048 1.17909L50.5182 1.18126L44.9865 10.212C43.4224 12.7727 42.2663 15.1312 41.5186 17.2901C40.7707 19.4469 40.3958 21.5925 40.3958 23.7227C40.3958 27.6257 41.7581 30.8009 44.4828 33.2506C47.2078 35.7002 50.7444 36.9248 55.0934 36.9248C59.4935 36.9248 63.0393 35.7046 65.7307 33.2638C68.4199 30.8231 69.7669 27.608 69.7669 23.6206C69.7669 20.1303 68.5974 17.2857 66.2588 15.0847ZM58.3685 26.8934C57.5253 27.7368 56.4358 28.1582 55.0934 28.1582C53.7533 28.1582 52.6615 27.7368 51.8206 26.8934C50.9775 26.0525 50.556 24.9608 50.556 23.6206C50.556 22.2783 50.9775 21.1799 51.8206 20.319C52.6615 19.4603 53.7533 19.0299 55.0934 19.0299C56.4358 19.0299 57.5253 19.4603 58.3685 20.319C59.2096 21.1799 59.6311 22.2783 59.6311 23.6206C59.6311 24.9608 59.2096 26.0525 58.3685 26.8934Z" fill="black"/>
<path d="M187.971 35.4974L174.682 16.8724L187.922 1.43792C187.944 1.4115 187.958 1.37598 187.958 1.33603C187.958 1.24945 187.889 1.17845 187.802 1.17845H186.553C186.507 1.17845 186.462 1.20065 186.436 1.23617L168.232 22.453V1.33603C168.232 1.24945 168.163 1.17845 168.077 1.17845H167.131C167.045 1.17845 166.976 1.24945 166.976 1.33603V35.5885C166.976 35.6751 167.045 35.7439 167.131 35.7439H168.077C168.163 35.7439 168.232 35.6751 168.232 35.5885V24.3545L173.837 17.8843L186.527 35.6774C186.553 35.7173 186.602 35.7439 186.655 35.7439H187.842C187.929 35.7439 188 35.6751 188 35.5885C188 35.553 187.989 35.5219 187.971 35.4974Z" fill="black"/>
<path d="M159.009 1.17881H158.046C157.959 1.17881 157.89 1.24995 157.89 1.33652V32.6933L135.225 1.24317C135.198 1.20543 135.152 1.17881 135.101 1.17881H134.488C134.402 1.17881 134.333 1.24995 134.333 1.33652V35.5867C134.333 35.6733 134.402 35.7443 134.488 35.7443H135.451C135.538 35.7443 135.609 35.6733 135.609 35.5867V3.98565L158.45 35.6799C158.479 35.7199 158.523 35.7443 158.576 35.7443H159.009C159.098 35.7443 159.166 35.6733 159.166 35.5867V1.33652C159.166 1.24995 159.098 1.17881 159.009 1.17881Z" fill="black"/>
<path d="M128.651 35.5331L115.662 1.28059C115.642 1.22288 115.582 1.17857 115.515 1.17857H114.907C114.839 1.17857 114.783 1.22071 114.759 1.27843L101.77 35.5309C101.763 35.5486 101.761 35.5685 101.761 35.5863C101.761 35.6729 101.83 35.744 101.916 35.744H102.917C102.986 35.744 103.041 35.7017 103.065 35.644L107.064 25.049H123.359L127.357 35.6397C127.38 35.7018 127.437 35.744 127.504 35.744H128.505C128.591 35.744 128.662 35.6729 128.662 35.5863C128.662 35.5685 128.658 35.5486 128.651 35.5331ZM107.528 23.7732L115.209 3.6437L122.893 23.7732H107.528Z" fill="black"/>
<defs>
<clipPath id="clip0_20_392">
<rect width="188" height="97" fill="white" transform="translate(0 64)"/>
</clipPath>
</defs>
</svg>
