<svg width="463" height="98" viewBox="0 0 463 98" fill="none" xmlns="http://www.w3.org/2000/svg">
<g>
<path d="M114.522 42.5861C117.839 40.9919 119.846 37.7149 119.846 33.7425C119.846 30.7786 118.885 28.3523 117.005 26.5332C115.175 24.6392 112.762 23.6791 109.841 23.6791H97.8168C97.7124 23.6791 97.6294 23.7647 97.6294 23.869V65.1607C97.6294 65.2677 97.7124 65.3508 97.8168 65.3508H111.465C114.621 65.3508 117.304 64.2353 119.444 62.0365C121.598 59.8187 122.689 57.1196 122.689 54.0111C122.689 48.3883 119.527 44.0415 114.522 42.5861ZM99.1675 25.2198H109.841C114.824 25.2198 118.307 28.7213 118.307 33.7425C118.307 36.1606 117.505 38.1857 115.924 39.7666C114.383 41.3073 112.337 42.0912 109.841 42.0912H99.1675V25.2198ZM118.299 60.9742C116.47 62.8575 114.169 63.8124 111.465 63.8124H99.1675V43.6293H110.943C113.942 43.6293 116.352 44.5791 118.305 46.5344C120.196 48.423 121.151 50.9403 121.151 54.0111C121.151 56.7773 120.217 59.0511 118.299 60.9742Z" fill="white"/>
<path d="M32.3955 52.018C30.927 53.2807 29.2231 53.912 27.2863 53.912C24.7984 53.912 22.7843 53.0452 21.2382 51.3145C19.6892 49.5811 18.9162 47.3152 18.9162 44.5145C18.9162 41.6977 19.6865 39.4213 21.2221 37.6879C22.7575 35.9572 24.7797 35.0876 27.2863 35.0876C29.108 35.0876 30.7531 35.6627 32.2192 36.8076C33.6876 37.9526 34.7255 39.4641 35.3327 41.3444H49.6334C48.8899 35.6467 46.4609 31.0429 42.3521 27.5279C38.2405 24.0129 33.1981 22.258 27.2274 22.258C22.803 22.258 18.8199 23.2106 15.2755 25.1207C11.7337 27.0278 8.96773 29.6816 6.98006 33.0762C4.99266 36.4734 4 40.2879 4 44.5145C4 48.7438 4.99266 52.5556 6.98006 55.9529C8.96773 59.3501 11.7337 62.0013 15.2755 63.9111C18.8199 65.8212 22.803 66.7733 27.2274 66.7733C33.2972 66.7733 38.4065 64.9516 42.5555 61.3137C46.7069 57.6703 49.1145 52.914 49.7806 47.0399H35.2738C34.8245 49.0968 33.8642 50.7553 32.3955 52.018Z" fill="white"/>
<path d="M83.8809 40.4442C81.0614 37.7906 77.426 36.4663 72.9695 36.4663C72.5121 36.4663 71.8915 36.4878 71.1049 36.5279L78.9934 23.6797L64.9042 23.6823L58.2353 34.5697C56.3496 37.6568 54.9558 40.5003 54.0544 43.103C53.1528 45.7032 52.7007 48.2899 52.7007 50.858C52.7007 55.5634 54.3432 59.3914 57.628 62.3447C60.9131 65.298 65.1769 66.7744 70.42 66.7744C75.7247 66.7744 79.9995 65.3033 83.2442 62.3607C86.4863 59.4182 88.1102 55.5421 88.1102 50.735C88.1102 46.5271 86.7003 43.0977 83.8809 40.4442ZM74.3684 54.6806C73.3519 55.6974 72.0384 56.2055 70.42 56.2055C68.8044 56.2055 67.4882 55.6974 66.4744 54.6806C65.4579 53.6669 64.9497 52.3507 64.9497 50.735C64.9497 49.1167 65.4579 47.7924 66.4744 46.7546C67.4882 45.7194 68.8044 45.2005 70.42 45.2005C72.0384 45.2005 73.3519 45.7194 74.3684 46.7546C75.3824 47.7924 75.8906 49.1167 75.8906 50.735C75.8906 52.3507 75.3824 53.6669 74.3684 54.6806Z" fill="white"/>
<path d="M230.616 65.0535L214.595 42.5993L230.557 23.9917C230.584 23.9599 230.6 23.917 230.6 23.8689C230.6 23.7645 230.517 23.6789 230.412 23.6789H228.907C228.85 23.6789 228.797 23.7057 228.765 23.7485L206.819 49.3273V23.8689C206.819 23.7645 206.736 23.6789 206.631 23.6789H205.492C205.387 23.6789 205.305 23.7645 205.305 23.8689V65.1633C205.305 65.2676 205.387 65.3506 205.492 65.3506H206.631C206.736 65.3506 206.819 65.2676 206.819 65.1633V51.6197L213.576 43.8192L228.874 65.2704C228.906 65.3186 228.965 65.3506 229.029 65.3506H230.461C230.565 65.3506 230.651 65.2676 230.651 65.1633C230.651 65.1204 230.637 65.0829 230.616 65.0535Z" fill="white"/>
<path d="M195.699 23.6793H194.538C194.434 23.6793 194.351 23.7651 194.351 23.8695V61.6728L167.026 23.7569C166.994 23.7114 166.937 23.6793 166.876 23.6793H166.137C166.033 23.6793 165.95 23.7651 165.95 23.8695V65.1611C165.95 65.2654 166.033 65.351 166.137 65.351H167.298C167.403 65.351 167.488 65.2654 167.488 65.1611V27.0632L195.025 65.2735C195.06 65.3216 195.113 65.351 195.178 65.351H195.699C195.806 65.351 195.889 65.2654 195.889 65.1611V23.8695C195.889 23.7651 195.806 23.6793 195.699 23.6793Z" fill="white"/>
<path d="M159.1 65.0965L143.441 23.8021C143.417 23.7325 143.344 23.6791 143.264 23.6791H142.531C142.448 23.6791 142.382 23.7299 142.352 23.7995L126.692 65.0939C126.684 65.1153 126.682 65.1393 126.682 65.1607C126.682 65.265 126.765 65.3508 126.869 65.3508H128.075C128.158 65.3508 128.225 65.2998 128.255 65.2302L133.075 52.457H152.72L157.541 65.225C157.567 65.3 157.637 65.3508 157.717 65.3508H158.924C159.028 65.3508 159.114 65.265 159.114 65.1607C159.114 65.1393 159.108 65.1152 159.1 65.0965ZM133.634 50.9189L142.895 26.651L152.159 50.9189H133.634Z" fill="white"/>
<g>
<mask id="mask0_3_68" style="mask-type:luminance" maskUnits="userSpaceOnUse" x="283" y="0" width="176" height="90">
<path d="M458.839 0H283.677V90H458.839V0Z" fill="white"/>
</mask>
<g>
<path d="M302.599 57.9472C302.599 62.7478 298.475 65.3395 293.352 65.3395C288.609 65.3395 285.195 63.1811 283.677 59.7227L288.089 57.131C288.849 59.2895 290.745 60.5854 293.352 60.5854C295.631 60.5854 297.385 59.8156 297.385 57.8969C297.385 53.6264 284.629 56.0247 284.629 47.4332C284.629 42.9227 288.471 40.0911 293.306 40.0911C297.194 40.0911 300.42 41.9131 302.079 45.0812L297.764 47.5299C296.911 45.6576 295.248 44.7949 293.306 44.7949C291.365 44.7949 289.843 45.6112 289.843 47.3403C289.843 51.7076 302.599 49.0694 302.599 57.9472Z" fill="white"/>
<path d="M303.142 52.7172C303.142 45.5647 308.738 40.0949 315.661 40.0949C322.583 40.0949 328.18 45.5647 328.18 52.7172C328.18 59.8696 322.629 65.3394 315.661 65.3394C308.692 65.3394 303.142 59.8194 303.142 52.7172ZM323.061 52.7172C323.061 48.3498 319.835 45.1353 315.665 45.1353C311.494 45.1353 308.268 48.3498 308.268 52.7172C308.268 57.0845 311.494 60.299 315.665 60.299C319.835 60.299 323.061 57.0845 323.061 52.7172Z" fill="white"/>
<path d="M380.622 60.5892C383.465 60.5892 385.602 59.2933 386.737 57.6144L390.957 60.1096C388.775 63.3743 385.22 65.3394 380.572 65.3394C372.747 65.3394 367.671 59.9161 367.671 52.7172C367.671 45.5182 372.743 40.0949 380.19 40.0949C387.636 40.0949 392.093 45.8548 392.093 52.7636C392.093 53.4831 391.998 54.2529 391.902 54.9221H373.026C373.833 58.6667 376.822 60.5853 380.614 60.5853L380.622 60.5892ZM386.929 50.7018C386.217 46.5743 383.228 44.7987 380.147 44.7987C376.306 44.7987 373.699 47.1043 372.988 50.7018H386.929Z" fill="white"/>
<path d="M415.865 49.9823V64.7168H410.743V50.5124C410.743 46.8645 408.655 44.9458 405.43 44.9458C402.204 44.9458 399.405 46.9612 399.405 51.8585V64.7206H394.283V40.7255H399.405V43.7969C400.969 41.3019 403.529 40.1028 406.756 40.1028C412.07 40.1028 415.861 43.7506 415.861 49.9901L415.865 49.9823Z" fill="white"/>
<path d="M426.901 45.7117V57.2315C426.901 60.3029 428.893 60.2565 432.78 60.0631V64.7167C424.906 65.676 421.779 63.4672 421.779 57.2315V45.7117H417.417V40.7216H421.779V35.5381L426.901 34.0023V40.7216H432.78V45.7117H426.901Z" fill="white"/>
<path d="M447.363 60.5892C450.207 60.5892 452.344 59.2933 453.483 57.6144L457.704 60.1096C455.521 63.3743 451.966 65.3394 447.318 65.3394C439.493 65.3394 434.417 59.9161 434.417 52.7172C434.417 45.5182 439.493 40.0949 446.935 40.0949C454.377 40.0949 458.839 45.8548 458.839 52.7636C458.839 53.4831 458.743 54.2529 458.648 54.9221H439.772C440.578 58.6667 443.568 60.5853 447.359 60.5853L447.363 60.5892ZM453.671 50.7018C452.96 46.5743 449.97 44.7987 446.889 44.7987C443.048 44.7987 440.441 47.1043 439.73 50.7018H453.671Z" fill="white"/>
<path d="M356.333 40.095C353.157 40.095 350.641 41.3909 349.078 43.8859C347.702 41.4876 345.427 40.095 342.343 40.095C339.258 40.095 337.079 41.2478 335.561 43.5997V40.7216H330.439V64.7168H335.561V51.2782C335.561 46.9109 337.931 44.9419 340.825 44.9419C343.719 44.9419 345.282 46.8142 345.282 50.1719V64.7129H350.404V51.2744C350.404 46.907 352.537 44.9381 355.572 44.9381C358.37 44.9381 360.171 46.8104 360.171 50.168V64.709H365.293V49.8315C365.293 43.8317 361.688 40.0911 356.329 40.0911L356.333 40.095Z" fill="white"/>
<path d="M329.996 70.3877C327.614 80.2907 318.91 87.2111 308.826 87.2111C298.742 87.2111 290.038 80.2945 287.657 70.3877L287.603 70.1634H284.771L284.847 70.5231C287.305 81.8109 297.389 90.004 308.826 90.004C320.263 90.004 330.347 81.8109 332.805 70.5231L332.882 70.1634H330.049L329.996 70.3877Z" fill="white"/>
<path d="M410.372 0C388.714 0 370.358 14.2586 363.94 34.0024H367.113C373.408 15.9645 390.392 3.04049 410.372 3.04049C430.353 3.04049 447.337 15.9683 453.632 34.0024H456.805C450.384 14.2586 432.027 0 410.372 0Z" fill="white"/>
</g>
</g>
<path d="M255.083 46.4129C255.083 47.0813 255.236 47.6774 255.543 48.2013C255.868 48.7071 256.293 49.1045 256.817 49.3936C257.359 49.6645 257.964 49.8 258.632 49.8C259.283 49.8 259.879 49.6645 260.421 49.3936C260.981 49.1045 261.541 48.6348 262.101 47.9845C262.173 47.9123 262.236 47.8761 262.29 47.8761C262.345 47.8581 262.444 47.8852 262.588 47.9574L264.539 48.7703C264.792 48.8787 264.819 49.0594 264.621 49.3123C264.043 50.1432 263.437 50.8026 262.805 51.2903C262.173 51.7781 261.468 52.1303 260.692 52.3471C259.933 52.5458 259.075 52.6452 258.117 52.6452C256.708 52.6452 255.453 52.3381 254.351 51.7239C253.249 51.1097 252.373 50.2607 251.723 49.1768C251.09 48.0748 250.774 46.8194 250.774 45.4103C250.774 43.8568 251.099 42.511 251.75 41.3729C252.418 40.2168 253.303 39.3226 254.405 38.6903C255.507 38.0581 256.717 37.7419 258.036 37.7419C259.427 37.7419 260.646 38.049 261.694 38.6632C262.742 39.2594 263.564 40.1174 264.16 41.2374C264.774 42.3574 265.081 43.7213 265.081 45.329C265.081 45.5278 265.063 45.6813 265.027 45.7897C264.991 45.8981 264.855 45.9613 264.621 45.9794H255.408C255.299 45.9794 255.218 46.0155 255.164 46.0878C255.11 46.16 255.083 46.2684 255.083 46.4129ZM260.529 43.7032C260.728 43.7032 260.854 43.6852 260.908 43.649C260.963 43.5948 260.99 43.4865 260.99 43.3239C260.99 42.8723 260.881 42.4116 260.665 41.9419C260.466 41.4723 260.159 41.0839 259.743 40.7768C259.346 40.4516 258.831 40.289 258.199 40.289C257.603 40.289 257.07 40.4336 256.6 40.7226C256.13 41.0116 255.769 41.4181 255.516 41.9419C255.263 42.4477 255.137 43.0258 255.137 43.6761L260.529 43.7032Z" fill="white"/>
</g>
</svg>
