<?xml version="1.0" encoding="UTF-8" standalone="no"?>
<!-- Created with Inkscape (http://www.inkscape.org/) -->

<svg
   width="107.431mm"
   height="24.541847mm"
   viewBox="0 0 107.431 24.541848"
   version="1.1"
   id="svg5"
   xml:space="preserve"
   inkscape:version="1.2.2 (732a01da63, 2022-12-09)"
   sodipodi:docname="Logos.svg"
   xmlns:inkscape="http://www.inkscape.org/namespaces/inkscape"
   xmlns:sodipodi="http://sodipodi.sourceforge.net/DTD/sodipodi-0.dtd"
   xmlns="http://www.w3.org/2000/svg"
   xmlns:svg="http://www.w3.org/2000/svg"><sodipodi:namedview
     id="namedview7"
     pagecolor="#ffffff"
     bordercolor="#000000"
     borderopacity="0.25"
     inkscape:showpageshadow="2"
     inkscape:pageopacity="0.0"
     inkscape:pagecheckerboard="0"
     inkscape:deskcolor="#d1d1d1"
     inkscape:document-units="mm"
     showgrid="false"
     showguides="true"
     inkscape:zoom="1.8707912"
     inkscape:cx="156.35096"
     inkscape:cy="-13.36333"
     inkscape:window-width="1366"
     inkscape:window-height="705"
     inkscape:window-x="-8"
     inkscape:window-y="-8"
     inkscape:window-maximized="1"
     inkscape:current-layer="g292"><inkscape:grid
       type="xygrid"
       id="grid532"
       originx="-1.3146841"
       originy="-77.638872" /></sodipodi:namedview><defs
     id="defs2"><clipPath
       id="clip0_20_392"><rect
         width="188"
         height="97"
         fill="#ffffff"
         transform="translate(0,64)"
         id="rect46"
         x="0"
         y="0" /></clipPath></defs><g
     inkscape:label="Layer 1"
     inkscape:groupmode="layer"
     id="layer1"
     transform="translate(-59.802213,-180.84092)"><g
       id="g292"
       transform="translate(-0.99000002,33.660001)"><g
         style="fill:none"
         id="g480"
         transform="matrix(0.26458333,0,0,0.26458333,46.82206,147.90921)"><g
           id="g451"><g
             id="g447"><mask
               id="mask0_3_68"
               maskUnits="userSpaceOnUse"
               x="283"
               y="0"
               width="176"
               height="90"><path
                 d="M 458.839,0 H 283.677 v 90 h 175.162 z"
                 fill="#ffffff"
                 id="path424" /></mask><g
               id="g445"><path
                 d="m 302.599,57.9472 c 0,4.8006 -4.124,7.3923 -9.247,7.3923 -4.743,0 -8.157,-2.1584 -9.675,-5.6168 l 4.412,-2.5917 c 0.76,2.1585 2.656,3.4544 5.263,3.4544 2.279,0 4.033,-0.7698 4.033,-2.6885 0,-4.2705 -12.756,-1.8722 -12.756,-10.4637 0,-4.5105 3.842,-7.3421 8.677,-7.3421 3.888,0 7.114,1.822 8.773,4.9901 l -4.315,2.4487 c -0.853,-1.8723 -2.516,-2.735 -4.458,-2.735 -1.941,0 -3.463,0.8163 -3.463,2.5454 0,4.3673 12.756,1.7291 12.756,10.6069 z"
                 fill="#ffffff"
                 id="path427" /><path
                 d="m 303.142,52.7172 c 0,-7.1525 5.596,-12.6223 12.519,-12.6223 6.922,0 12.519,5.4698 12.519,12.6223 0,7.1524 -5.551,12.6222 -12.519,12.6222 -6.969,0 -12.519,-5.52 -12.519,-12.6222 z m 19.919,0 c 0,-4.3674 -3.226,-7.5819 -7.396,-7.5819 -4.171,0 -7.397,3.2145 -7.397,7.5819 0,4.3673 3.226,7.5818 7.397,7.5818 4.17,0 7.396,-3.2145 7.396,-7.5818 z"
                 fill="#ffffff"
                 id="path429" /><path
                 d="m 380.622,60.5892 c 2.843,0 4.98,-1.2959 6.115,-2.9748 l 4.22,2.4952 c -2.182,3.2647 -5.737,5.2298 -10.385,5.2298 -7.825,0 -12.901,-5.4233 -12.901,-12.6222 0,-7.199 5.072,-12.6223 12.519,-12.6223 7.446,0 11.903,5.7599 11.903,12.6687 0,0.7195 -0.095,1.4893 -0.191,2.1585 h -18.876 c 0.807,3.7446 3.796,5.6632 7.588,5.6632 z m 6.307,-9.8874 c -0.712,-4.1275 -3.701,-5.9031 -6.782,-5.9031 -3.841,0 -6.448,2.3056 -7.159,5.9031 z"
                 fill="#ffffff"
                 id="path431" /><path
                 d="m 415.865,49.9823 v 14.7345 h -5.122 V 50.5124 c 0,-3.6479 -2.088,-5.5666 -5.313,-5.5666 -3.226,0 -6.025,2.0154 -6.025,6.9127 v 12.8621 h -5.122 V 40.7255 h 5.122 v 3.0714 c 1.564,-2.495 4.124,-3.6941 7.351,-3.6941 5.314,0 9.105,3.6478 9.105,9.8873 z"
                 fill="#ffffff"
                 id="path433" /><path
                 d="m 426.901,45.7117 v 11.5198 c 0,3.0714 1.992,3.025 5.879,2.8316 v 4.6536 c -7.874,0.9593 -11.001,-1.2495 -11.001,-7.4852 V 45.7117 h -4.362 v -4.9901 h 4.362 v -5.1835 l 5.122,-1.5358 v 6.7193 h 5.879 v 4.9901 z"
                 fill="#ffffff"
                 id="path435" /><path
                 d="m 447.363,60.5892 c 2.844,0 4.981,-1.2959 6.12,-2.9748 l 4.221,2.4952 c -2.183,3.2647 -5.738,5.2298 -10.386,5.2298 -7.825,0 -12.901,-5.4233 -12.901,-12.6222 0,-7.199 5.076,-12.6223 12.518,-12.6223 7.442,0 11.904,5.7599 11.904,12.6687 0,0.7195 -0.096,1.4893 -0.191,2.1585 h -18.876 c 0.806,3.7446 3.796,5.6632 7.587,5.6632 z m 6.308,-9.8874 c -0.711,-4.1275 -3.701,-5.9031 -6.782,-5.9031 -3.841,0 -6.448,2.3056 -7.159,5.9031 z"
                 fill="#ffffff"
                 id="path437" /><path
                 d="m 356.333,40.095 c -3.176,0 -5.692,1.2959 -7.255,3.7909 -1.376,-2.3983 -3.651,-3.7909 -6.735,-3.7909 -3.085,0 -5.264,1.1528 -6.782,3.5047 v -2.8781 h -5.122 v 23.9952 h 5.122 V 51.2782 c 0,-4.3673 2.37,-6.3363 5.264,-6.3363 2.894,0 4.457,1.8723 4.457,5.23 v 14.541 h 5.122 V 51.2744 c 0,-4.3674 2.133,-6.3363 5.168,-6.3363 2.798,0 4.599,1.8723 4.599,5.2299 v 14.541 h 5.122 V 49.8315 c 0,-5.9998 -3.605,-9.7404 -8.964,-9.7404 z"
                 fill="#ffffff"
                 id="path439" /><path
                 d="m 329.996,70.3877 c -2.382,9.903 -11.086,16.8234 -21.17,16.8234 -10.084,0 -18.788,-6.9166 -21.169,-16.8234 l -0.054,-0.2243 h -2.832 l 0.076,0.3597 c 2.458,11.2878 12.542,19.4809 23.979,19.4809 11.437,0 21.521,-8.1931 23.979,-19.4809 l 0.077,-0.3597 h -2.833 z"
                 fill="#ffffff"
                 id="path441" /><path
                 d="M 410.372,0 C 388.714,0 370.358,14.2586 363.94,34.0024 h 3.173 c 6.295,-18.0379 23.279,-30.96191 43.259,-30.96191 19.981,0 36.965,12.92781 43.26,30.96191 h 3.173 C 450.384,14.2586 432.027,0 410.372,0 Z"
                 fill="#ffffff"
                 id="path443" /></g></g><path
             d="m 259.35926,53.896365 c 0,0.6684 0.153,1.2645 0.46,1.7884 0.325,0.5058 0.75,0.9032 1.274,1.1923 0.542,0.2709 1.147,0.4064 1.815,0.4064 0.651,0 1.247,-0.1355 1.789,-0.4064 0.56,-0.2891 1.12,-0.7588 1.68,-1.4091 0.072,-0.0722 0.135,-0.1084 0.189,-0.1084 0.055,-0.018 0.154,0.0091 0.298,0.0813 l 1.951,0.8129 c 0.253,0.1084 0.28,0.2891 0.082,0.542 -0.578,0.8309 -1.184,1.4903 -1.816,1.978 -0.632,0.4878 -1.337,0.84 -2.113,1.0568 -0.759,0.1987 -1.617,0.2981 -2.575,0.2981 -1.409,0 -2.664,-0.3071 -3.766,-0.9213 -1.102,-0.6142 -1.978,-1.4632 -2.628,-2.5471 -0.633,-1.102 -0.949,-2.3574 -0.949,-3.7665 0,-1.5535 0.325,-2.8993 0.976,-4.0374 0.668,-1.1561 1.553,-2.0503 2.655,-2.6826 1.102,-0.6322 2.312,-0.9484 3.631,-0.9484 1.391,0 2.61,0.3071 3.658,0.9213 1.048,0.5962 1.87,1.4542 2.466,2.5742 0.614,1.12 0.921,2.4839 0.921,4.0916 0,0.1988 -0.018,0.3523 -0.054,0.4607 -0.036,0.1084 -0.172,0.1716 -0.406,0.1897 h -9.213 c -0.109,0 -0.19,0.0361 -0.244,0.1084 -0.054,0.0722 -0.081,0.1806 -0.081,0.3251 z m 5.446,-2.7097 c 0.199,0 0.325,-0.018 0.379,-0.0542 0.055,-0.0542 0.082,-0.1625 0.082,-0.3251 0,-0.4516 -0.109,-0.9123 -0.325,-1.382 -0.199,-0.4696 -0.506,-0.858 -0.922,-1.1651 -0.397,-0.3252 -0.912,-0.4878 -1.544,-0.4878 -0.596,0 -1.129,0.1446 -1.599,0.4336 -0.47,0.289 -0.831,0.6955 -1.084,1.2193 -0.253,0.5058 -0.379,1.0839 -0.379,1.7342 z"
             fill="#ffffff"
             id="path449" /></g></g><g
         style="clip-rule:evenodd;fill-rule:evenodd;image-rendering:optimizeQuality;shape-rendering:geometricPrecision;text-rendering:geometricPrecision"
         id="g530"
         transform="matrix(0.03126208,0,0,0.03209802,60.807844,147.19697)"><g
           id="g484"><path
             style="opacity:0.987;fill:#00e983;fill-opacity:1"
             fill="#00e983"
             d="m 228.5,-0.5 c 3.333,0 6.667,0 10,0 30.638,5.48954 44.472,23.8229 41.5,55 -4.321,16.3221 -14.321,27.6555 -30,34 -7.71,2.1214 -15.543,3.6214 -23.5,4.5 -12.159,5.8059 -15.659,14.973 -10.5,27.5 2.592,3.262 5.759,5.762 9.5,7.5 18.63,-0.763 34.13,5.737 46.5,19.5 14.063,24.354 10.563,45.854 -10.5,64.5 -9.308,6.412 -19.642,9.579 -31,9.5 -46.181,-1.824 -80.347,-22.824 -102.5,-63 -19.732,-50.236 -9.898,-93.7362 29.5,-130.5 20.771,-16.8648 44.438,-26.36481 71,-28.5 z"
             id="path482" /></g><g
           id="g488"><path
             style="opacity:0.976;fill:#00e983;fill-opacity:1"
             fill="#00e983"
             d="m 1257.5,203.5 c 28.53,2.702 41.7,18.369 39.5,47 -6.98,22.251 -22.15,32.085 -45.5,29.5 -23.07,-6.946 -32.9,-22.446 -29.5,-46.5 5.34,-17.847 17.17,-27.847 35.5,-30 z"
             id="path486" /></g><g
           id="g492"><path
             style="opacity:0.996;fill:#fe7500;fill-opacity:1"
             fill="#fe7500"
             d="m 248.5,729.5 c -16.667,0 -33.333,0 -50,0 -31.765,-2.194 -61.432,-11.361 -89,-27.5 C 78.1636,681.303 58.6636,652.47 51,615.5 44.7061,573.443 38.0394,531.443 31,489.5 23.1157,455.629 14.449,421.963 5,388.5 c -2.052,-9.096 -3.88533,-18.096 -5.5,-27 0,-10.333 0,-20.667 0,-31 8.65341,-39.503 31.3201,-68.003 68,-85.5 31.4164,-10.607 63.083,-11.274 95,-2 10.333,3.667 20.667,7.333 31,11 8.392,2.413 16.892,3.913 25.5,4.5 8.608,-0.587 17.108,-2.087 25.5,-4.5 23.864,-10.716 48.864,-16.216 75,-16.5 53.566,-0.15 91.732,23.85 114.5,72 6.008,16.51 8.008,33.51 6,51 -1.125,11.082 -2.791,22.082 -5,33 -8.966,35.196 -17.299,70.529 -25,106 -4.49,32.879 -7.823,65.879 -10,99 -5.325,43.17 -25.825,77.003 -61.5,101.5 -27.744,16.97 -57.744,26.804 -90,29.5 z"
             id="path490" /></g><g
           id="g496"><path
             style="opacity:0.984;fill:#e80536;fill-opacity:1"
             fill="#e70536"
             d="m 721.5,313.5 c 26.765,-1.487 52.431,3.013 77,13.5 23.596,12.938 40.096,32.105 49.5,57.5 3.619,10.809 6.452,21.809 8.5,33 -22.657,1 -45.324,1.333 -68,1 -4.213,-32.373 -22.713,-48.707 -55.5,-49 -32.169,1.841 -52.836,18.175 -62,49 -5.216,21.302 -4.216,42.302 3,63 15.209,31.098 40.043,43.598 74.5,37.5 26.144,-5.647 40.477,-21.813 43,-48.5 22.667,0 45.333,0 68,0 -6.675,60.843 -40.342,95.676 -101,104.5 -36.732,5.327 -71.399,-0.673 -104,-18 -31.204,-21.546 -48.704,-51.38 -52.5,-89.5 -4.142,-32.208 0.858,-62.875 15,-92 17.112,-30.085 42.612,-49.252 76.5,-57.5 9.411,-1.937 18.745,-3.437 28,-4.5 z"
             id="path494" /></g><g
           id="g500"><path
             style="opacity:0.984;fill:#e80536;fill-opacity:1"
             fill="#e70536"
             d="m 1000.5,313.5 c 25.1,-2.228 47.77,3.938 68,18.5 15.93,15.036 25.1,33.536 27.5,55.5 0.5,-22.331 0.67,-44.664 0.5,-67 21.67,0 43.33,0 65,0 0,83 0,166 0,249 -21.67,0 -43.33,0 -65,0 0.17,-22.003 0,-44.003 -0.5,-66 -7.59,48.723 -36.09,73.056 -85.5,73 -65.035,-2.362 -103.035,-35.695 -114,-100 -4.939,-31.752 -2.106,-62.752 8.5,-93 18.477,-41.654 50.31,-64.988 95.5,-70 z m 23,56 c 44.67,-1.83 69.51,19.504 74.5,64 3.04,24.147 -2.29,46.147 -16,66 -16.14,17.16 -35.98,23.994 -59.5,20.5 -33.928,-5.262 -54.095,-24.762 -60.5,-58.5 -3.948,-22.921 0.052,-44.255 12,-64 12.63,-16.23 29.13,-25.564 49.5,-28 z"
             id="path498" /></g><g
           id="g504"><path
             style="opacity:0.986;fill:#e80536;fill-opacity:1"
             fill="#e70536"
             d="m 1226.5,320.5 c 21.67,0 43.33,0 65,0 0.17,94.667 0,189.334 -0.5,284 -0.89,19.894 -6.55,38.228 -17,55 -12.35,15.768 -28.52,25.268 -48.5,28.5 -20.57,3.652 -41.24,4.319 -62,2 -6.4,-0.643 -12.57,-2.143 -18.5,-4.5 -0.83,-21.674 -0.67,-43.341 0.5,-65 20.57,6.996 41.24,7.496 62,1.5 8.93,-4.016 14.43,-10.849 16.5,-20.5 0.88,-3.289 1.55,-6.623 2,-10 0.5,-90.333 0.67,-180.666 0.5,-271 z"
             id="path502" /></g><g
           id="g508"><path
             style="opacity:0.987;fill:#e80536;fill-opacity:1"
             fill="#e70536"
             d="m 1575.5,320.5 c 0,83 0,166 0,249 -21.67,0 -43.33,0 -65,0 0.17,-21.669 0,-43.336 -0.5,-65 -8.62,53.933 -40.12,77.433 -94.5,70.5 -28.33,-4.326 -46.83,-20.159 -55.5,-47.5 -2.69,-9.149 -4.35,-18.482 -5,-28 -0.5,-59.666 -0.67,-119.332 -0.5,-179 21.67,0 43.33,0 65,0 -0.17,52.334 0,104.668 0.5,157 1.72,26.388 15.72,39.722 42,40 24.83,-1.153 40.5,-13.82 47,-38 1.47,-52.967 1.97,-105.967 1.5,-159 21.67,0 43.33,0 65,0 z"
             id="path506" /></g></g></g></g></svg>
