<svg width="421" height="392" viewBox="0 0 421 392" fill="none" xmlns="http://www.w3.org/2000/svg">
<g clip-path="url(#clip0_1_44)">
<path d="M117.2 296.887L93.4405 300.094L82.0704 290.472L75.4907 300.094L78.6521 320.395L82.263 336.422L104.193 322.596L121.854 320.614L117.2 296.887Z" fill="#A0616A"/>
<path d="M237.585 262.89L180.237 261.605L110.484 298.162L119.784 323.184L182.821 301.369L280.466 336.003L267.034 253.915L237.585 262.89Z" fill="#2F2E41"/>
<path d="M80.281 299.218L91.6833 298.112L77.1837 260.091C77.1837 260.091 70.4676 257.143 69.4325 266.317C68.3974 275.481 77.2158 337.567 79.7996 337.567C82.3833 337.567 91.0494 331.292 91.0494 331.292L78.2189 301.14L80.2891 299.218L80.281 299.218Z" fill="#2F2E41"/>
<path d="M366.179 288.808C365.032 288.958 363.78 289.187 362.448 289.526C356.799 290.95 356.687 295.711 356.735 296.797L356.695 296.767C356.125 297.893 355.772 299.038 355.556 300.124L355.299 285.541C355.467 285.113 355.62 284.615 355.748 284.117C356.173 285.731 356.863 287.255 357.457 287.155C358.236 287.025 358.573 284.187 358.428 282.174C359.415 283.748 361.076 285.442 361.702 284.924C362.199 284.505 361.903 282.792 361.357 281.238C362.496 282.095 363.756 282.653 364.149 282.105C364.687 281.368 363.403 278.848 362.224 277.443C363.804 277.622 365.818 277.314 365.947 276.417C366.059 275.68 364.855 274.754 363.58 274.156C364.863 273.738 366.067 273 366.027 272.273C365.979 271.407 364.197 270.829 362.657 270.749C363.82 269.624 364.888 268.06 364.559 267.353C364.262 266.705 362.865 266.954 361.574 267.522C362.336 266.167 362.873 264.643 362.464 264.125C361.959 263.478 360.153 264.593 358.918 265.839C359.158 263.906 359.038 261.466 358.34 261.247C357.754 261.057 356.928 262.482 356.358 264.026C356.109 262.402 355.596 260.868 355.01 260.868C354.175 260.868 353.501 263.996 353.501 266.028V266.356C353.421 266.237 353.325 266.107 353.212 265.978C352.033 264.564 349.762 262.99 349.176 263.727C348.767 264.245 349.305 265.769 350.067 267.123C348.775 266.556 347.379 266.297 347.082 266.954C346.681 267.831 348.406 270.002 349.802 271.058C349.722 271.048 349.626 271.038 349.537 271.028C347.901 270.889 345.341 271.516 345.285 272.552C345.245 273.279 346.448 274.016 347.732 274.435C346.448 275.032 345.253 275.959 345.365 276.696C345.493 277.592 347.507 277.901 349.088 277.722C347.909 279.126 346.625 281.647 347.162 282.384C347.555 282.922 348.815 282.364 349.955 281.517C349.409 283.071 349.112 284.784 349.61 285.203C350.268 285.75 352.089 283.838 353.044 282.194C352.948 284.206 353.333 286.976 354.103 287.085C354.424 287.135 354.769 286.707 355.074 286.049L354.199 301.728C353.999 303.551 355.299 304.746 355.419 305.493L355.604 316.111C355.395 315.354 355.106 314.577 354.721 313.81L354.681 313.84C354.729 312.745 354.617 307.993 348.968 306.569C347.636 306.23 346.384 306.001 345.237 305.852C343.88 305.672 343.351 307.973 344.579 308.72C346.352 309.796 348.021 311.151 348.888 312.754C351.11 316.858 354.175 314.488 354.617 314.119C355.106 315.125 355.427 316.141 355.628 317.107L355.724 322.745C355.7 322.875 355.684 322.954 355.684 322.954L355.732 322.974L355.973 336.621L358.22 336.601L357.417 322.656C357.554 321.899 357.971 319.339 357.417 316.679L356.615 305.722L355.572 301.419C355.724 300.084 356.077 298.59 356.791 297.106C357.225 297.474 360.298 299.845 362.52 295.741C363.387 294.138 365.056 292.783 366.829 291.707C368.049 290.96 367.527 288.659 366.171 288.838V288.808L366.179 288.808ZM355.941 321.092L355.901 318.701C355.989 319.608 355.981 320.415 355.941 321.092Z" fill="#F2F2F2"/>
<path d="M0 336.342C0 336.999 0.425277 337.527 0.954867 337.527H420.045C420.575 337.527 421 336.999 421 336.342C421 335.685 420.575 335.157 420.045 335.157H0.954867C0.425277 335.157 0 335.685 0 336.342Z" fill="#2F2E41" fill-opacity="0.2"/>
<path d="M278.075 177.365L283.764 153.639L300.294 152.991L307.01 182.495L278.075 177.365Z" fill="#A0616A"/>
<path opacity="0.1" d="M278.075 177.365L283.764 153.639L300.294 152.991L307.01 182.495L278.075 177.365Z" fill="black"/>
<path d="M303.455 174.058L276.59 172.773L268.261 194.04L255.407 288.221L322.833 307.137C322.833 307.137 326.966 201.949 317.666 187.197C308.366 172.445 303.455 174.048 303.455 174.048V174.058Z" fill="#E6E6E6"/>
<path d="M224.771 100.308C223.647 92.8868 219.659 87.5777 215.848 88.4642C212.037 89.3507 209.862 96.0843 210.985 103.515C211.403 106.493 212.382 109.292 213.85 111.703L218.913 143.09L228.903 140.57L224.474 109.233C225.14 106.324 225.236 103.266 224.755 100.308L224.771 100.308Z" fill="#A0616A"/>
<path d="M299.435 182.605L244.566 169.188L229.144 111.613L211.868 116.693L229.2 201.74L291.307 211.88L299.435 182.605Z" fill="#E6E6E6"/>
<path d="M215.872 8.08937C215.816 8.1591 215.768 8.21886 215.712 8.28859C207.407 -1.95125 194.023 -2.0409 185.621 8.08937C177.196 18.2495 176.907 34.9341 184.979 45.5325L185.18 45.7915L214.909 83.7925L245.73 46.6382L245.642 46.5286C245.69 46.4689 245.746 46.4091 245.802 46.3493C254.316 36.0896 254.508 19.2058 246.243 8.64718C237.979 -1.92137 224.378 -2.16043 215.872 8.09933V8.08937Z" fill="#E80537"/>
<path d="M223.222 196.55C223.126 196.67 223.03 196.799 222.933 196.919C207.631 178.073 182.989 177.903 167.519 196.55C152 215.267 151.471 245.996 166.339 265.51L166.709 265.998L221.465 335.983L278.219 267.552L278.059 267.353C278.155 267.243 278.251 267.133 278.348 267.024C294.019 248.128 294.388 217.04 279.166 197.576C263.944 178.123 238.901 177.664 223.222 196.56V196.55Z" fill="#E80537"/>
<path d="M306.938 274.554C306.938 274.554 327.214 295.522 319.688 308.242C312.169 320.962 286.588 343.733 275.034 336.671C263.479 329.608 239.495 278.569 239.495 278.569L233.22 330.854L216.803 329.051C216.803 329.051 204.879 255.2 215.872 243.875C226.873 232.549 276.944 252.571 276.944 252.571L306.93 274.564L306.938 274.554Z" fill="#2F2E41"/>
<path d="M220.903 322.108L216.201 340.247L206.404 357.29L213.914 371.245L237.786 351.732L237.706 341.691L233.958 335.426L231.31 323.413L220.903 322.108Z" fill="#A0616A"/>
<path d="M213.393 364.372L207.399 352.28L186.761 385.639C186.761 385.639 187.716 394.404 194.761 391.356C201.806 388.308 245.481 360.517 244.301 357.658C243.122 354.8 238.283 339.44 238.283 339.44L215.72 365.767L213.401 364.362L213.393 364.372Z" fill="#2F2E41"/>
<path d="M226.063 274.385C220.005 275.132 215.407 279.615 215.792 284.396C216.177 289.177 221.393 292.454 227.451 291.707C229.874 291.448 232.209 290.472 234.271 288.868L259.892 285.312L258.729 272.741L233.196 275.521C230.925 274.445 228.478 274.056 226.063 274.395L226.063 274.385Z" fill="#A0616A"/>
<path d="M298.552 189.139L283.05 255.838L235.515 269.942L238.099 291.757L307.852 277.642L321.341 201.71L298.552 189.139Z" fill="#E6E6E6"/>
<path d="M289.926 160.741C302.051 160.741 311.88 148.539 311.88 133.488C311.88 118.436 302.051 106.234 289.926 106.234C277.802 106.234 267.973 118.436 267.973 133.488C267.973 148.539 277.802 160.741 289.926 160.741Z" fill="#A0616A"/>
<path d="M291.676 96.8413C291.042 97.2995 290.191 96.6022 289.983 95.7257C289.782 94.8491 290.015 93.9128 290.255 93.0561C290.649 91.6018 291.042 90.1476 291.443 88.7032C292.286 85.6153 293.176 82.4179 294.998 80.0671C297.742 76.521 302.107 75.6145 306.039 76.272C311.086 77.1087 316.061 80.5054 318.412 86.1134C320.755 91.7214 319.76 99.5507 315.523 103.047C321.565 111.643 323.668 121.226 323.339 132.621C323.01 144.026 312.996 154.515 306.472 162.544C305.012 161.448 303.688 156.308 304.49 154.435C305.293 152.573 304.145 150.401 305.132 148.688C306.119 146.975 306.954 149.704 305.951 148.001C305.317 146.925 307.788 144.435 306.849 143.797C302.3 140.669 300.783 133.627 297.918 128.228C294.468 121.724 288.562 117.311 282.32 116.584C278.877 116.185 275.242 116.913 272.426 119.393C269.601 121.873 267.78 126.306 268.43 130.519C266.737 128.388 265.894 125.25 266.207 122.282C266.528 119.313 267.997 116.564 270.083 115.05C268.815 109.85 269.898 103.864 272.843 99.8396C275.788 95.8153 287.72 96.5026 292.013 97.5585L291.684 96.8513L291.676 96.8413Z" fill="#2F2E41"/>
<path d="M292.35 116.733C298.039 117.5 302.147 123.616 305.614 129.264C307.612 132.521 309.706 136.117 309.658 140.211C309.61 144.345 307.379 147.901 306.312 151.826C304.57 158.241 306.264 165.861 310.412 170.253C306.32 171.22 301.89 167.405 301.184 162.305C300.358 156.368 303.985 150.64 303.559 144.634C303.182 139.345 299.828 135.281 296.972 131.326C294.115 127.372 291.443 122.132 292.751 117.082L292.35 116.743L292.35 116.733Z" fill="#2F2E41"/>
</g>
<defs>
<clipPath id="clip0_1_44">
<rect width="421" height="391.45" fill="white" transform="translate(0 0.549805)"/>
</clipPath>
</defs>
</svg>
